<svg xmlns="http://www.w3.org/2000/svg" width="13.2992" height="13.2991" viewBox="0 0 13.2992 13.2991"><title>Icon (4)</title><path d="M6.9875,6.5367a.357.357,0,0,0-.2256-.2252L2.9862,5.0529a.3572.3572,0,0,0-.3648.0858L1.3629,6.3976a.3561.3561,0,0,0,.1391.5894L5.1093,8.1889,6.3115,11.797a.357.357,0,0,0,.2562.2337.3417.3417,0,0,0,.082.01.3567.3567,0,0,0,.2514-.1042l1.2594-1.2586a.3573.3573,0,0,0,.0857-.3647Zm-.1824,4.4885-1.0763-3.23A.3573.3573,0,0,0,5.5031,7.57L2.2737,6.4938l.6957-.6961,3.3983,1.133,1.1334,3.3986Z" fill="#fff"/><path d="M9.5046,4.0192A.3576.3576,0,0,0,9.28,3.7939L5.5033,2.5353a.3588.3588,0,0,0-.3639.0863L3.88,3.88a.3562.3562,0,0,0,.1391.5894L7.6272,5.6718,8.83,9.2791a.355.355,0,0,0,.2556.234.37.37,0,0,0,.082.0094.3541.3541,0,0,0,.2519-.1043L10.6776,8.16a.3571.3571,0,0,0,.0857-.3647ZM9.3223,8.5073l-1.0762-3.23a.3578.3578,0,0,0-.2249-.2249l-3.23-1.0767.6961-.6956L8.8856,4.4132l1.1326,3.3983Z" fill="#fff"/><path d="M12.0225,1.5021a.3565.3565,0,0,0-.2256-.2256L8.0212.0179A.3587.3587,0,0,0,7.6565.104L6.3979,1.363a.3558.3558,0,0,0,.139.5894l3.6073,1.2023L11.3464,6.762a.3573.3573,0,0,0,.2565.234.3637.3637,0,0,0,.0817.0093.3555.3555,0,0,0,.2514-.1042l1.2585-1.2586a.3564.3564,0,0,0,.0866-.3647ZM11.84,5.99,10.7632,2.7607a.3574.3574,0,0,0-.2249-.2254l-3.23-1.0766L8.0046.763l3.3983,1.1331,1.1326,3.3983Z" fill="#fff"/><path d="M4.3838,8.9152a.3563.3563,0,0,0-.5038,0L.1043,12.691a.3562.3562,0,0,0,.5038.5038L4.3838,9.4182A.3553.3553,0,0,0,4.3838,8.9152Z" fill="#fff"/><path d="M1.2369,10.048,2.4955,8.7894a.356.356,0,0,0-.503-.5038L.7339,9.5442a.356.356,0,1,0,.503.5038Z" fill="#fff"/><path d="M4.51,10.8027,3.2512,12.0621a.3557.3557,0,1,0,.503.503l1.2594-1.2586a.3562.3562,0,0,0-.5038-.5038Z" fill="#fff"/></svg>