<?xml version="1.0" encoding="UTF-8" standalone="no"?>
<svg
   xmlns:dc="http://purl.org/dc/elements/1.1/"
   xmlns:cc="http://creativecommons.org/ns#"
   xmlns:rdf="http://www.w3.org/1999/02/22-rdf-syntax-ns#"
   xmlns:svg="http://www.w3.org/2000/svg"
   xmlns="http://www.w3.org/2000/svg"
   xmlns:sodipodi="http://sodipodi.sourceforge.net/DTD/sodipodi-0.dtd"
   xmlns:inkscape="http://www.inkscape.org/namespaces/inkscape"
   style="height: 512px; width: 512px;"
   viewBox="0 0 512 512"
   version="1.1"
   id="svg30"
   sodipodi:docname="spiky-eclipse.svg"
   inkscape:version="0.92.4 (5da689c313, 2019-01-14)">
  <metadata
     id="metadata36">
    <rdf:RDF>
      <cc:Work
         rdf:about="">
        <dc:format>image/svg+xml</dc:format>
        <dc:type
           rdf:resource="http://purl.org/dc/dcmitype/StillImage" />
        <dc:title></dc:title>
      </cc:Work>
    </rdf:RDF>
  </metadata>
  <defs
     id="defs34" />
  <sodipodi:namedview
     pagecolor="#ffffff"
     bordercolor="#666666"
     borderopacity="1"
     objecttolerance="10"
     gridtolerance="10"
     guidetolerance="10"
     inkscape:pageopacity="0"
     inkscape:pageshadow="2"
     inkscape:window-width="1920"
     inkscape:window-height="1057"
     id="namedview32"
     showgrid="false"
     inkscape:zoom="1.7382812"
     inkscape:cx="256"
     inkscape:cy="256"
     inkscape:window-x="-8"
     inkscape:window-y="-8"
     inkscape:window-maximized="1"
     inkscape:current-layer="svg30" />
  <g
     class=""
     style="touch-action:none;fill:#ffffff"
     transform="translate(0,0)"
     id="g28">
    <path
       d="M159.182 17.115l14.882 129.483-46.134-25.303 37.46 72.914c18.642-27.004 49.798-44.702 85.094-44.702 57.07 0 103.334 46.262 103.334 103.332 0 30.772-13.454 58.398-34.797 77.328l67.918 29.404-26.258-60.27 137.83-15.784-126.504-44.65 81.853-53.58H360.1L465.104 18.735 334.8 125.76l-2.978-72.926-69.95 84.832-19.35-84.834-22.323 68.46L159.18 17.116zM24.94 141.8l48.62 54.354 71.725 25.797-51.588-58.237L24.94 141.8zM147.17 254.52l-49.526 27.513 43.69 4.684-76.457 95.18 90.5-48.372-82.702 160.72 124.83-127.95 6.242 71.775 26.863-83.812c-47.03-9.163-82.65-50.216-83.44-99.738zm155.935 87.263c-12.105 7.178-25.8 11.952-40.433 13.672l75.08 136.164-34.647-149.837zM249.95 373.95h-.003l-11.457 59.872 19.237 60.74 12.533-63.812-20.31-56.8zm131.48 13.45l34.513 48.39 52.453 12.493v-.002L435.8 403.183 381.43 387.4z"
       fill="#fff"
       fill-opacity="1"
       id="path26"
       style="fill:#ffffff" />
  </g>
  <path
     style="stroke-width:0.5752809;fill:none"
     d="M 0,256 V 0 H 256 512 V 256 512 H 256 0 Z m 264.2682,206.66473 6.25473,-32.06698 -9.86216,-27.61348 c -5.42418,-15.18742 -9.99231,-27.97413 -10.15141,-28.41492 -0.15908,-0.4408 -0.42793,-0.66276 -0.59743,-0.49326 -0.1695,0.16949 -2.87636,13.6034 -6.01525,29.85312 l -5.70707,29.54495 9.6243,30.62812 c 5.29336,16.84547 9.75373,30.62842 9.91193,30.62878 0.1582,3.6e-4 3.10227,-14.42949 6.54236,-32.06633 z m -129.07719,-32.0278 c 34.01348,-34.90876 61.90808,-63.41439 61.98799,-63.34586 0.0799,0.0685 1.44764,15.37608 3.03941,34.01677 1.59176,18.64069 3.07964,34.62308 3.30639,35.51643 0.33073,1.30299 3.076,-6.69171 13.87897,-40.41795 7.40668,-23.12323 13.36084,-42.13081 13.23146,-42.23908 -0.12938,-0.10828 -2.55361,-0.76915 -5.38718,-1.46861 -24.05923,-5.939 -46.21637,-21.60142 -60.50706,-42.77117 -9.22205,-13.66124 -15.29738,-31.09357 -16.87942,-48.43311 -0.34495,-3.78081 -0.69662,-6.94364 -0.78149,-7.0285 -0.14171,-0.14171 -48.689604,26.67175 -49.234389,27.19262 -0.131831,0.12604 -0.131831,0.33413 0,0.46242 0.131837,0.12828 9.300379,1.17802 20.374529,2.33275 11.07416,1.15473 20.60399,2.28393 21.17741,2.50935 0.87268,0.34305 -1.89313,4.06409 -16.97362,22.83578 -9.9089,12.33427 -26.914817,33.50267 -37.790928,47.04088 -10.876111,13.53822 -19.661519,24.72817 -19.523124,24.86656 0.138396,0.1384 20.131835,-10.37243 44.429862,-23.3574 24.29803,-12.98497 44.28509,-23.50218 44.41568,-23.37158 0.1306,0.13058 -17.13812,33.99526 -38.37493,75.25482 -45.190206,87.79703 -43.229942,83.94244 -42.670136,83.90479 0.240835,-0.0162 28.267096,-28.59115 62.280576,-63.49991 z m 185.48077,-14.19288 c -9.38171,-40.62535 -17.24239,-74.06626 -17.46819,-74.31314 -0.22579,-0.24687 -2.59021,0.69717 -5.25425,2.09787 -9.59422,5.04445 -23.09934,9.45145 -32.07584,10.46703 -1.94998,0.22062 -3.54541,0.47197 -3.54541,0.55857 0,0.70845 75.06112,136.07464 75.2086,135.63217 0.10601,-0.31802 -7.4832,-33.81715 -16.86491,-74.4425 z m 131.51211,8.88418 -16.1561,-22.34396 -27.13368,-7.89295 c -14.92353,-4.34112 -27.24593,-7.7807 -27.38311,-7.64352 -0.13719,0.13719 7.46233,11.06699 16.8878,24.28845 9.42549,13.22147 17.17377,24.09521 17.21842,24.16388 0.27876,0.42875 52.40724,12.51353 52.54828,12.1821 0.096,-0.22552 -7.09576,-10.46482 -15.98161,-22.754 z m -65.54966,-67.07205 c -0.27573,-0.71191 -5.99008,-13.84989 -12.69856,-29.19551 -6.70848,-15.34561 -12.23647,-28.28185 -12.28443,-28.7472 -0.0678,-0.65834 1.25312,-0.9983 5.95325,-1.5321 106.0978,-12.04974 129.32091,-14.73757 130.17684,-15.06655 0.66984,-0.25746 -20.75913,-8.08261 -61.69887,-22.5304 -34.49884,-12.17476 -62.72516,-22.30048 -62.72516,-22.50158 0,-0.20109 18.16284,-12.24318 40.36186,-26.76019 l 40.36185,-26.39456 -46.7131,-0.28764 -46.7131,-0.28764 51.79549,-82.15365 c 28.48751,-45.184513 52.08564,-82.695831 52.44029,-83.358492 l 0.64481,-1.20484 -1.6486,1.207045 c -0.90673,0.663874 -30.25444,24.721973 -65.21714,53.462441 -50.07986,41.167276 -63.59441,52.007326 -63.69048,51.086276 -0.0671,-0.64301 -0.6533,-15.27788 -1.30273,-32.521927 -1.2696,-33.71092 -1.57139,-38.715541 -2.30723,-38.260766 -0.26133,0.161511 -15.96153,19.078939 -34.88932,42.038733 -18.92779,22.95979 -34.48096,41.53385 -34.5626,41.27569 -0.0816,-0.25816 -4.29674,-18.72017 -9.36689,-41.026691 -5.07015,-22.306517 -9.4398,-41.075056 -9.71033,-41.707865 -0.37293,-0.872353 -2.5365,5.109133 -8.94767,24.737079 -4.6507,14.238202 -9.63326,29.469917 -11.07236,33.848267 -1.4391,4.37835 -2.80958,7.74374 -3.04552,7.47865 -0.23594,-0.26509 -13.82764,-23.392535 -30.20379,-51.394333 -16.37614,-28.001798 -29.87451,-51.020225 -29.99637,-51.15206 -0.12186,-0.131835 -0.3159,-0.131835 -0.4312,0 -0.1153,0.131835 3.10966,28.974981 7.1666,64.09588 4.05693,35.120903 7.3225,64.014323 7.25683,64.207603 -0.0657,0.19329 -10.19599,-5.18493 -22.51181,-11.95159 -12.31582,-6.76667 -22.59031,-12.23178 -22.8322,-12.14469 -0.37346,0.13445 36.08075,71.74558 36.98087,72.6457 0.17355,0.17355 1.8239,-1.69747 3.66743,-4.15782 6.78105,-9.04986 18.43092,-19.41567 28.86993,-25.68785 21.41826,-12.86897 48.50346,-17.47564 73.18104,-12.44666 45.37659,9.24715 79.29869,47.97711 82.24024,93.89632 1.93257,30.16861 -8.53255,58.31724 -29.5753,79.55037 l -4.87505,4.91914 1.8666,0.87079 c 6.06916,2.83131 65.27007,28.36431 65.85236,28.40172 0.49842,0.032 0.55803,-0.33381 0.20352,-1.2491 z M 144.58184,220.76404 C 143.94122,220.05213 132.34893,206.96095 118.8212,191.67252 105.29348,176.38409 93.670032,163.62757 92.991321,163.32469 90.848354,162.36837 25.096224,141.54348 24.885396,141.7543 c -0.110633,0.11064 10.750319,12.44195 24.13545,27.40292 l 24.336604,27.20178 35.37521,12.78879 c 19.45636,7.03384 35.74393,12.81622 36.19458,12.84972 0.59116,0.0439 0.49496,-0.29961 -0.3454,-1.23347 z"
     id="path38"
     inkscape:connector-curvature="0" />
</svg>
